<svg width="21" height="27" viewBox="0 0 21 27" fill="none" xmlns="http://www.w3.org/2000/svg">
<circle cx="10.5" cy="16.5" r="9.5" stroke="black" stroke-width="2"/>
<path d="M11.6074 23.5018H9.38756L9.56299 13.6577H11.432L11.6074 23.5018ZM10.5008 9.5554C10.8652 9.5554 11.1801 9.68809 11.4454 9.95348C11.7108 10.2144 11.8458 10.5315 11.8503 10.9048C11.8458 11.2737 11.7108 11.5908 11.4454 11.8562C11.1801 12.1171 10.8652 12.2475 10.5008 12.2475C10.1275 12.2475 9.80814 12.1171 9.54275 11.8562C9.27736 11.5908 9.14691 11.2737 9.15141 10.9048C9.14691 10.6529 9.20539 10.4258 9.32684 10.2234C9.45278 10.021 9.61697 9.85902 9.81938 9.73757C10.0263 9.61612 10.2534 9.5554 10.5008 9.5554Z" fill="black"/>
</svg>
